<mxfile host="app.diagrams.net" modified="2022-09-20T04:08:34.064Z" agent="5.0 (Windows NT 10.0; Win64; x64) AppleWebKit/537.36 (KHTML, like Gecko) Chrome/105.0.0.0 Safari/537.36" etag="tDgOOHxI-IDLS4HP69QV" version="20.0.1" type="github">
  <diagram id="nKixB-swxuelsMwNh83h" name="Page-1">
    <mxGraphModel dx="2500" dy="925" grid="1" gridSize="10" guides="1" tooltips="1" connect="1" arrows="1" fold="1" page="1" pageScale="1" pageWidth="827" pageHeight="1169" math="0" shadow="0">
      <root>
        <mxCell id="0" />
        <mxCell id="1" parent="0" />
        <mxCell id="GCktm6jk6U1iaw8o4M6b-1" value="Client" style="rounded=0;whiteSpace=wrap;html=1;strokeWidth=2;spacing=2;fontStyle=1;fontSize=16;" vertex="1" parent="1">
          <mxGeometry x="90" y="180" width="120" height="60" as="geometry" />
        </mxCell>
        <mxCell id="GCktm6jk6U1iaw8o4M6b-2" value="" style="endArrow=classic;html=1;rounded=0;exitX=1;exitY=0.5;exitDx=0;exitDy=0;" edge="1" parent="1" source="GCktm6jk6U1iaw8o4M6b-1">
          <mxGeometry width="50" height="50" relative="1" as="geometry">
            <mxPoint x="390" y="430" as="sourcePoint" />
            <mxPoint x="300" y="210" as="targetPoint" />
          </mxGeometry>
        </mxCell>
        <mxCell id="GCktm6jk6U1iaw8o4M6b-12" value="" style="rounded=0;whiteSpace=wrap;html=1;fontSize=12;strokeWidth=2;" vertex="1" parent="1">
          <mxGeometry x="300" y="160" width="120" height="60" as="geometry" />
        </mxCell>
        <mxCell id="GCktm6jk6U1iaw8o4M6b-13" value="&lt;b&gt;&lt;font style=&quot;font-size: 14px;&quot;&gt;Abstraction&lt;/font&gt;&lt;/b&gt;" style="text;html=1;strokeColor=none;fillColor=none;align=center;verticalAlign=middle;whiteSpace=wrap;rounded=0;fontSize=12;" vertex="1" parent="1">
          <mxGeometry x="330" y="180" width="60" height="30" as="geometry" />
        </mxCell>
        <mxCell id="GCktm6jk6U1iaw8o4M6b-14" value="&lt;font style=&quot;font-size: 11px;&quot;&gt;&amp;lt;&amp;lt; interface &amp;gt;&amp;gt;&lt;/font&gt;" style="text;html=1;strokeColor=none;fillColor=none;align=center;verticalAlign=middle;whiteSpace=wrap;rounded=0;fontSize=14;" vertex="1" parent="1">
          <mxGeometry x="315" y="160" width="90" height="30" as="geometry" />
        </mxCell>
        <mxCell id="GCktm6jk6U1iaw8o4M6b-15" value="" style="rounded=0;whiteSpace=wrap;html=1;fontSize=11;strokeWidth=2;" vertex="1" parent="1">
          <mxGeometry x="300" y="220" width="120" height="30" as="geometry" />
        </mxCell>
        <mxCell id="GCktm6jk6U1iaw8o4M6b-16" value="&lt;font style=&quot;font-size: 14px;&quot;&gt;&lt;i&gt;+ doSomething()&lt;/i&gt;&lt;/font&gt;" style="text;html=1;strokeColor=none;fillColor=none;align=center;verticalAlign=middle;whiteSpace=wrap;rounded=0;fontSize=11;" vertex="1" parent="1">
          <mxGeometry x="300" y="220" width="120" height="30" as="geometry" />
        </mxCell>
        <mxCell id="GCktm6jk6U1iaw8o4M6b-17" value="" style="endArrow=none;dashed=1;html=1;rounded=0;fontSize=14;exitX=0.5;exitY=0;exitDx=0;exitDy=0;" edge="1" parent="1" source="GCktm6jk6U1iaw8o4M6b-1">
          <mxGeometry width="50" height="50" relative="1" as="geometry">
            <mxPoint x="390" y="390" as="sourcePoint" />
            <mxPoint x="150" y="110" as="targetPoint" />
          </mxGeometry>
        </mxCell>
        <mxCell id="GCktm6jk6U1iaw8o4M6b-18" value="" style="rounded=1;whiteSpace=wrap;html=1;fontSize=14;strokeWidth=2;" vertex="1" parent="1">
          <mxGeometry x="90" y="50" width="370" height="60" as="geometry" />
        </mxCell>
        <mxCell id="GCktm6jk6U1iaw8o4M6b-20" value="Program to an interface, not an implementation." style="text;html=1;strokeColor=none;fillColor=none;align=center;verticalAlign=middle;whiteSpace=wrap;rounded=0;fontSize=14;" vertex="1" parent="1">
          <mxGeometry x="90" y="65" width="370" height="30" as="geometry" />
        </mxCell>
        <mxCell id="GCktm6jk6U1iaw8o4M6b-21" value="" style="endArrow=none;dashed=1;html=1;rounded=0;fontSize=14;exitX=1;exitY=0.75;exitDx=0;exitDy=0;" edge="1" parent="1" source="GCktm6jk6U1iaw8o4M6b-12">
          <mxGeometry width="50" height="50" relative="1" as="geometry">
            <mxPoint x="390" y="390" as="sourcePoint" />
            <mxPoint x="490" y="205" as="targetPoint" />
            <Array as="points">
              <mxPoint x="450" y="205" />
            </Array>
          </mxGeometry>
        </mxCell>
        <mxCell id="GCktm6jk6U1iaw8o4M6b-22" value="" style="rounded=1;whiteSpace=wrap;html=1;fontSize=14;strokeWidth=2;" vertex="1" parent="1">
          <mxGeometry x="490" y="180" width="220" height="60" as="geometry" />
        </mxCell>
        <mxCell id="GCktm6jk6U1iaw8o4M6b-23" value="Open for extention,&lt;br&gt;closed for modification." style="text;html=1;strokeColor=none;fillColor=none;align=center;verticalAlign=middle;whiteSpace=wrap;rounded=0;fontSize=14;" vertex="1" parent="1">
          <mxGeometry x="490" y="180" width="220" height="60" as="geometry" />
        </mxCell>
        <mxCell id="GCktm6jk6U1iaw8o4M6b-24" value="" style="shape=flexArrow;endArrow=classic;html=1;rounded=0;fontSize=14;entryX=0.5;entryY=1;entryDx=0;entryDy=0;" edge="1" parent="1" target="GCktm6jk6U1iaw8o4M6b-16">
          <mxGeometry width="50" height="50" relative="1" as="geometry">
            <mxPoint x="360" y="300" as="sourcePoint" />
            <mxPoint x="440" y="330" as="targetPoint" />
          </mxGeometry>
        </mxCell>
        <mxCell id="GCktm6jk6U1iaw8o4M6b-25" value="ImplementationOne" style="swimlane;fontStyle=1;align=center;verticalAlign=top;childLayout=stackLayout;horizontal=1;startSize=26;horizontalStack=0;resizeParent=1;resizeParentMax=0;resizeLast=0;collapsible=1;marginBottom=0;fontSize=14;strokeWidth=2;" vertex="1" parent="1">
          <mxGeometry x="80" y="360" width="160" height="86" as="geometry" />
        </mxCell>
        <mxCell id="GCktm6jk6U1iaw8o4M6b-26" value="  " style="text;strokeColor=none;fillColor=none;align=left;verticalAlign=top;spacingLeft=4;spacingRight=4;overflow=hidden;rotatable=0;points=[[0,0.5],[1,0.5]];portConstraint=eastwest;fontSize=14;" vertex="1" parent="GCktm6jk6U1iaw8o4M6b-25">
          <mxGeometry y="26" width="160" height="26" as="geometry" />
        </mxCell>
        <mxCell id="GCktm6jk6U1iaw8o4M6b-27" value="" style="line;strokeWidth=1;fillColor=none;align=left;verticalAlign=middle;spacingTop=-1;spacingLeft=3;spacingRight=3;rotatable=0;labelPosition=right;points=[];portConstraint=eastwest;fontSize=14;" vertex="1" parent="GCktm6jk6U1iaw8o4M6b-25">
          <mxGeometry y="52" width="160" height="8" as="geometry" />
        </mxCell>
        <mxCell id="GCktm6jk6U1iaw8o4M6b-28" value="+ doSomething()" style="text;strokeColor=none;fillColor=none;align=left;verticalAlign=top;spacingLeft=4;spacingRight=4;overflow=hidden;rotatable=0;points=[[0,0.5],[1,0.5]];portConstraint=eastwest;fontSize=14;fontStyle=2" vertex="1" parent="GCktm6jk6U1iaw8o4M6b-25">
          <mxGeometry y="60" width="160" height="26" as="geometry" />
        </mxCell>
        <mxCell id="GCktm6jk6U1iaw8o4M6b-29" value="ImplementationTwo" style="swimlane;fontStyle=1;align=center;verticalAlign=top;childLayout=stackLayout;horizontal=1;startSize=26;horizontalStack=0;resizeParent=1;resizeParentMax=0;resizeLast=0;collapsible=1;marginBottom=0;fontSize=14;strokeWidth=2;" vertex="1" parent="1">
          <mxGeometry x="490" y="360" width="160" height="86" as="geometry" />
        </mxCell>
        <mxCell id="GCktm6jk6U1iaw8o4M6b-30" value="  " style="text;strokeColor=none;fillColor=none;align=left;verticalAlign=top;spacingLeft=4;spacingRight=4;overflow=hidden;rotatable=0;points=[[0,0.5],[1,0.5]];portConstraint=eastwest;fontSize=14;" vertex="1" parent="GCktm6jk6U1iaw8o4M6b-29">
          <mxGeometry y="26" width="160" height="26" as="geometry" />
        </mxCell>
        <mxCell id="GCktm6jk6U1iaw8o4M6b-31" value="" style="line;strokeWidth=1;fillColor=none;align=left;verticalAlign=middle;spacingTop=-1;spacingLeft=3;spacingRight=3;rotatable=0;labelPosition=right;points=[];portConstraint=eastwest;fontSize=14;" vertex="1" parent="GCktm6jk6U1iaw8o4M6b-29">
          <mxGeometry y="52" width="160" height="8" as="geometry" />
        </mxCell>
        <mxCell id="GCktm6jk6U1iaw8o4M6b-32" value="+ doSomething()" style="text;strokeColor=none;fillColor=none;align=left;verticalAlign=top;spacingLeft=4;spacingRight=4;overflow=hidden;rotatable=0;points=[[0,0.5],[1,0.5]];portConstraint=eastwest;fontSize=14;fontStyle=2" vertex="1" parent="GCktm6jk6U1iaw8o4M6b-29">
          <mxGeometry y="60" width="160" height="26" as="geometry" />
        </mxCell>
        <mxCell id="GCktm6jk6U1iaw8o4M6b-34" value="" style="endArrow=none;html=1;rounded=0;fontSize=14;" edge="1" parent="1" source="GCktm6jk6U1iaw8o4M6b-25">
          <mxGeometry width="50" height="50" relative="1" as="geometry">
            <mxPoint x="390" y="380" as="sourcePoint" />
            <mxPoint x="160" y="300" as="targetPoint" />
          </mxGeometry>
        </mxCell>
        <mxCell id="GCktm6jk6U1iaw8o4M6b-35" value="" style="endArrow=none;html=1;rounded=0;fontSize=17;fontStyle=1" edge="1" parent="1">
          <mxGeometry width="50" height="50" relative="1" as="geometry">
            <mxPoint x="160" y="300" as="sourcePoint" />
            <mxPoint x="360" y="300" as="targetPoint" />
          </mxGeometry>
        </mxCell>
        <mxCell id="GCktm6jk6U1iaw8o4M6b-37" value="" style="endArrow=none;html=1;rounded=0;fontSize=14;exitX=0.5;exitY=0;exitDx=0;exitDy=0;" edge="1" parent="1" source="GCktm6jk6U1iaw8o4M6b-29">
          <mxGeometry width="50" height="50" relative="1" as="geometry">
            <mxPoint x="390" y="380" as="sourcePoint" />
            <mxPoint x="570" y="300" as="targetPoint" />
          </mxGeometry>
        </mxCell>
        <mxCell id="GCktm6jk6U1iaw8o4M6b-38" value="" style="endArrow=none;html=1;rounded=0;fontSize=14;" edge="1" parent="1">
          <mxGeometry width="50" height="50" relative="1" as="geometry">
            <mxPoint x="360" y="300" as="sourcePoint" />
            <mxPoint x="570" y="300" as="targetPoint" />
          </mxGeometry>
        </mxCell>
        <mxCell id="GCktm6jk6U1iaw8o4M6b-39" value="Ticket" style="swimlane;fontStyle=1;align=center;verticalAlign=top;childLayout=stackLayout;horizontal=1;startSize=40;horizontalStack=0;resizeParent=1;resizeParentMax=0;resizeLast=0;collapsible=1;marginBottom=0;fontSize=17;strokeWidth=2;" vertex="1" parent="1">
          <mxGeometry x="80" y="510" width="580" height="210" as="geometry">
            <mxRectangle x="80" y="510" width="80" height="40" as="alternateBounds" />
          </mxGeometry>
        </mxCell>
        <mxCell id="GCktm6jk6U1iaw8o4M6b-40" value="- price: double&#xa;- promoteStrategy: PromoteStrategy &#xa;- name: string&#xa;" style="text;strokeColor=none;fillColor=none;align=left;verticalAlign=top;spacingLeft=4;spacingRight=4;overflow=hidden;rotatable=0;points=[[0,0.5],[1,0.5]];portConstraint=eastwest;fontSize=17;" vertex="1" parent="GCktm6jk6U1iaw8o4M6b-39">
          <mxGeometry y="40" width="580" height="80" as="geometry" />
        </mxCell>
        <mxCell id="GCktm6jk6U1iaw8o4M6b-41" value="" style="line;strokeWidth=1;fillColor=none;align=left;verticalAlign=middle;spacingTop=-1;spacingLeft=3;spacingRight=3;rotatable=0;labelPosition=right;points=[];portConstraint=eastwest;fontSize=17;" vertex="1" parent="GCktm6jk6U1iaw8o4M6b-39">
          <mxGeometry y="120" width="580" height="8" as="geometry" />
        </mxCell>
        <mxCell id="GCktm6jk6U1iaw8o4M6b-42" value="+ SetPromoteStrategy(promoteStrategy: PromoteStrategy): void&#xa;+ SetPrice(price: double): void&#xa;+ GetPromotedPrice(): double" style="text;strokeColor=none;fillColor=none;align=left;verticalAlign=top;spacingLeft=4;spacingRight=4;overflow=hidden;rotatable=0;points=[[0,0.5],[1,0.5]];portConstraint=eastwest;fontSize=17;" vertex="1" parent="GCktm6jk6U1iaw8o4M6b-39">
          <mxGeometry y="128" width="580" height="82" as="geometry" />
        </mxCell>
        <mxCell id="GCktm6jk6U1iaw8o4M6b-43" value="" style="line;strokeWidth=1;fillColor=none;align=left;verticalAlign=middle;spacingTop=-1;spacingLeft=3;spacingRight=3;rotatable=0;labelPosition=right;points=[];portConstraint=eastwest;fontSize=17;" vertex="1" parent="1">
          <mxGeometry x="-400" y="490" width="1470" height="8" as="geometry" />
        </mxCell>
        <mxCell id="GCktm6jk6U1iaw8o4M6b-45" value="1" style="endArrow=open;html=1;endSize=12;startArrow=diamondThin;startSize=14;startFill=0;edgeStyle=orthogonalEdgeStyle;align=left;verticalAlign=bottom;rounded=0;fontSize=17;" edge="1" parent="1">
          <mxGeometry x="-1" y="3" relative="1" as="geometry">
            <mxPoint x="359.5" y="720" as="sourcePoint" />
            <mxPoint x="360" y="840" as="targetPoint" />
            <Array as="points">
              <mxPoint x="360" y="760" />
              <mxPoint x="360" y="760" />
            </Array>
          </mxGeometry>
        </mxCell>
        <mxCell id="GCktm6jk6U1iaw8o4M6b-46" value="« interface »&lt;br&gt;&lt;b&gt;PromoteStrategy&lt;/b&gt;" style="html=1;dropTarget=0;fontSize=17;strokeWidth=2;" vertex="1" parent="1">
          <mxGeometry x="180" y="840" width="360" height="60" as="geometry" />
        </mxCell>
        <mxCell id="GCktm6jk6U1iaw8o4M6b-48" value="+ DoDiscount(price: double): double" style="html=1;fontSize=17;strokeWidth=2;" vertex="1" parent="1">
          <mxGeometry x="180" y="900" width="360" height="50" as="geometry" />
        </mxCell>
        <mxCell id="GCktm6jk6U1iaw8o4M6b-49" value="NoDiscountStrategy" style="swimlane;fontStyle=1;align=center;verticalAlign=top;childLayout=stackLayout;horizontal=1;startSize=37;horizontalStack=0;resizeParent=1;resizeParentMax=0;resizeLast=0;collapsible=1;marginBottom=0;fontSize=17;strokeWidth=2;" vertex="1" parent="1">
          <mxGeometry x="-200" y="1083" width="320" height="92" as="geometry" />
        </mxCell>
        <mxCell id="GCktm6jk6U1iaw8o4M6b-50" value=" " style="text;strokeColor=none;fillColor=none;align=left;verticalAlign=top;spacingLeft=4;spacingRight=4;overflow=hidden;rotatable=0;points=[[0,0.5],[1,0.5]];portConstraint=eastwest;fontSize=17;" vertex="1" parent="GCktm6jk6U1iaw8o4M6b-49">
          <mxGeometry y="37" width="320" height="13" as="geometry" />
        </mxCell>
        <mxCell id="GCktm6jk6U1iaw8o4M6b-51" value="" style="line;strokeWidth=1;fillColor=none;align=left;verticalAlign=middle;spacingTop=-1;spacingLeft=3;spacingRight=3;rotatable=0;labelPosition=right;points=[];portConstraint=eastwest;fontSize=17;" vertex="1" parent="GCktm6jk6U1iaw8o4M6b-49">
          <mxGeometry y="50" width="320" height="8" as="geometry" />
        </mxCell>
        <mxCell id="GCktm6jk6U1iaw8o4M6b-52" value="+ DoDiscount(price: double): double" style="text;strokeColor=none;fillColor=none;align=left;verticalAlign=top;spacingLeft=4;spacingRight=4;overflow=hidden;rotatable=0;points=[[0,0.5],[1,0.5]];portConstraint=eastwest;fontSize=17;" vertex="1" parent="GCktm6jk6U1iaw8o4M6b-49">
          <mxGeometry y="58" width="320" height="34" as="geometry" />
        </mxCell>
        <mxCell id="GCktm6jk6U1iaw8o4M6b-53" value="HalfDiscountStrategy" style="swimlane;fontStyle=1;align=center;verticalAlign=top;childLayout=stackLayout;horizontal=1;startSize=37;horizontalStack=0;resizeParent=1;resizeParentMax=0;resizeLast=0;collapsible=1;marginBottom=0;fontSize=17;strokeWidth=2;" vertex="1" parent="1">
          <mxGeometry x="640" y="1083" width="320" height="90" as="geometry" />
        </mxCell>
        <mxCell id="GCktm6jk6U1iaw8o4M6b-54" value=" " style="text;strokeColor=none;fillColor=none;align=left;verticalAlign=top;spacingLeft=4;spacingRight=4;overflow=hidden;rotatable=0;points=[[0,0.5],[1,0.5]];portConstraint=eastwest;fontSize=17;" vertex="1" parent="GCktm6jk6U1iaw8o4M6b-53">
          <mxGeometry y="37" width="320" height="13" as="geometry" />
        </mxCell>
        <mxCell id="GCktm6jk6U1iaw8o4M6b-55" value="" style="line;strokeWidth=1;fillColor=none;align=left;verticalAlign=middle;spacingTop=-1;spacingLeft=3;spacingRight=3;rotatable=0;labelPosition=right;points=[];portConstraint=eastwest;fontSize=17;" vertex="1" parent="GCktm6jk6U1iaw8o4M6b-53">
          <mxGeometry y="50" width="320" height="8" as="geometry" />
        </mxCell>
        <mxCell id="GCktm6jk6U1iaw8o4M6b-56" value="+ DoDiscount(price: double): double" style="text;strokeColor=none;fillColor=none;align=left;verticalAlign=top;spacingLeft=4;spacingRight=4;overflow=hidden;rotatable=0;points=[[0,0.5],[1,0.5]];portConstraint=eastwest;fontSize=17;" vertex="1" parent="GCktm6jk6U1iaw8o4M6b-53">
          <mxGeometry y="58" width="320" height="32" as="geometry" />
        </mxCell>
        <mxCell id="GCktm6jk6U1iaw8o4M6b-57" value="QuarterDiscountStrategy" style="swimlane;fontStyle=1;align=center;verticalAlign=top;childLayout=stackLayout;horizontal=1;startSize=40;horizontalStack=0;resizeParent=1;resizeParentMax=0;resizeLast=0;collapsible=1;marginBottom=0;fontSize=17;strokeWidth=2;" vertex="1" parent="1">
          <mxGeometry x="200" y="1220" width="320" height="90" as="geometry" />
        </mxCell>
        <mxCell id="GCktm6jk6U1iaw8o4M6b-58" value=" " style="text;strokeColor=none;fillColor=none;align=left;verticalAlign=top;spacingLeft=4;spacingRight=4;overflow=hidden;rotatable=0;points=[[0,0.5],[1,0.5]];portConstraint=eastwest;fontSize=17;" vertex="1" parent="GCktm6jk6U1iaw8o4M6b-57">
          <mxGeometry y="40" width="320" height="10" as="geometry" />
        </mxCell>
        <mxCell id="GCktm6jk6U1iaw8o4M6b-59" value="" style="line;strokeWidth=1;fillColor=none;align=left;verticalAlign=middle;spacingTop=-1;spacingLeft=3;spacingRight=3;rotatable=0;labelPosition=right;points=[];portConstraint=eastwest;fontSize=17;" vertex="1" parent="GCktm6jk6U1iaw8o4M6b-57">
          <mxGeometry y="50" width="320" height="8" as="geometry" />
        </mxCell>
        <mxCell id="GCktm6jk6U1iaw8o4M6b-60" value="+ DoDiscount(price: double): double" style="text;strokeColor=none;fillColor=none;align=left;verticalAlign=top;spacingLeft=4;spacingRight=4;overflow=hidden;rotatable=0;points=[[0,0.5],[1,0.5]];portConstraint=eastwest;fontSize=17;" vertex="1" parent="GCktm6jk6U1iaw8o4M6b-57">
          <mxGeometry y="58" width="320" height="32" as="geometry" />
        </mxCell>
        <mxCell id="GCktm6jk6U1iaw8o4M6b-61" value="" style="endArrow=block;dashed=1;endFill=0;endSize=12;html=1;rounded=0;fontSize=25;exitX=0.5;exitY=0;exitDx=0;exitDy=0;entryX=0.25;entryY=1;entryDx=0;entryDy=0;" edge="1" parent="1" source="GCktm6jk6U1iaw8o4M6b-49" target="GCktm6jk6U1iaw8o4M6b-48">
          <mxGeometry width="160" relative="1" as="geometry">
            <mxPoint x="330" y="1050" as="sourcePoint" />
            <mxPoint x="490" y="1050" as="targetPoint" />
          </mxGeometry>
        </mxCell>
        <mxCell id="GCktm6jk6U1iaw8o4M6b-63" value="" style="endArrow=block;dashed=1;endFill=0;endSize=12;html=1;rounded=0;fontSize=25;exitX=0.5;exitY=0;exitDx=0;exitDy=0;entryX=0.5;entryY=1;entryDx=0;entryDy=0;" edge="1" parent="1" source="GCktm6jk6U1iaw8o4M6b-57" target="GCktm6jk6U1iaw8o4M6b-48">
          <mxGeometry width="160" relative="1" as="geometry">
            <mxPoint x="330" y="1050" as="sourcePoint" />
            <mxPoint x="490" y="1050" as="targetPoint" />
          </mxGeometry>
        </mxCell>
        <mxCell id="GCktm6jk6U1iaw8o4M6b-64" value="" style="endArrow=block;dashed=1;endFill=0;endSize=12;html=1;rounded=0;fontSize=25;exitX=0.5;exitY=0;exitDx=0;exitDy=0;entryX=0.75;entryY=1;entryDx=0;entryDy=0;" edge="1" parent="1" source="GCktm6jk6U1iaw8o4M6b-53" target="GCktm6jk6U1iaw8o4M6b-48">
          <mxGeometry width="160" relative="1" as="geometry">
            <mxPoint x="330" y="1050" as="sourcePoint" />
            <mxPoint x="490" y="1050" as="targetPoint" />
          </mxGeometry>
        </mxCell>
        <mxCell id="GCktm6jk6U1iaw8o4M6b-65" value="" style="line;strokeWidth=1;fillColor=none;align=left;verticalAlign=middle;spacingTop=-1;spacingLeft=3;spacingRight=3;rotatable=0;labelPosition=right;points=[];portConstraint=eastwest;fontSize=17;" vertex="1" parent="1">
          <mxGeometry x="-390" y="1330" width="1470" height="8" as="geometry" />
        </mxCell>
        <mxCell id="GCktm6jk6U1iaw8o4M6b-66" value="TuihoclaptrinhSingleton" style="swimlane;fontStyle=1;align=center;verticalAlign=top;childLayout=stackLayout;horizontal=1;startSize=40;horizontalStack=0;resizeParent=1;resizeParentMax=0;resizeLast=0;collapsible=1;marginBottom=0;fontSize=25;strokeWidth=2;" vertex="1" parent="1">
          <mxGeometry x="80" y="1400" width="480" height="200" as="geometry" />
        </mxCell>
        <mxCell id="GCktm6jk6U1iaw8o4M6b-67" value="- uniqueInstance: TuihoclaptrinhSingleton" style="text;strokeColor=none;fillColor=none;align=left;verticalAlign=top;spacingLeft=4;spacingRight=4;overflow=hidden;rotatable=0;points=[[0,0.5],[1,0.5]];portConstraint=eastwest;fontSize=25;fontStyle=4" vertex="1" parent="GCktm6jk6U1iaw8o4M6b-66">
          <mxGeometry y="40" width="480" height="40" as="geometry" />
        </mxCell>
        <mxCell id="GCktm6jk6U1iaw8o4M6b-68" value="" style="line;strokeWidth=1;fillColor=none;align=left;verticalAlign=middle;spacingTop=-1;spacingLeft=3;spacingRight=3;rotatable=0;labelPosition=right;points=[];portConstraint=eastwest;fontSize=25;" vertex="1" parent="GCktm6jk6U1iaw8o4M6b-66">
          <mxGeometry y="80" width="480" height="30" as="geometry" />
        </mxCell>
        <mxCell id="GCktm6jk6U1iaw8o4M6b-69" value="- TuihoclaptrinhSingleton(): void" style="text;strokeColor=none;fillColor=none;align=left;verticalAlign=top;spacingLeft=4;spacingRight=4;overflow=hidden;rotatable=0;points=[[0,0.5],[1,0.5]];portConstraint=eastwest;fontSize=25;fontStyle=0" vertex="1" parent="GCktm6jk6U1iaw8o4M6b-66">
          <mxGeometry y="110" width="480" height="40" as="geometry" />
        </mxCell>
        <mxCell id="GCktm6jk6U1iaw8o4M6b-70" value="&lt;span style=&quot;text-align: left;&quot;&gt;&lt;u&gt;+ getInstance(): TuihoclaptrinhSingleton&lt;/u&gt;&lt;/span&gt;" style="text;html=1;strokeColor=none;fillColor=none;align=center;verticalAlign=middle;whiteSpace=wrap;rounded=0;fontSize=25;" vertex="1" parent="GCktm6jk6U1iaw8o4M6b-66">
          <mxGeometry y="150" width="480" height="50" as="geometry" />
        </mxCell>
      </root>
    </mxGraphModel>
  </diagram>
</mxfile>
